Coordinates
version=1
nRows=22
nColumns=24
inDegrees=yes

Units are S.I. units (second, meters, Newtons, ...)
Angles are in degrees.

endheader
time	pelvis_tilt	pelvis_list	pelvis_rotation	pelvis_tx	pelvis_ty	pelvis_tz	hip_flexion_r	hip_adduction_r	hip_rotation_r	knee_angle_r	ankle_angle_r	subtalar_angle_r	mtp_angle_r	hip_flexion_l	hip_adduction_l	hip_rotation_l	knee_angle_l	ankle_angle_l	subtalar_angle_l	mtp_angle_l	lumbar_extension	lumbar_bending	lumbar_rotation
      5.85000000	     59.40653873	      3.19011721	     -1.52886343	      0.55943400	      1.00176975	     -0.29037825	     -4.66991944	    -16.10108355	     12.15399291	    -44.50957275	     -4.85433234	     13.31934780	    -74.59759993	     -4.24648026	     -7.77416315	      1.90374581	    -53.42918957	      3.62350073	     10.65705422	    -42.61477993	      0.00000000	      0.00000000	      0.00000000
      5.86000000	     59.41003991	      3.18951561	     -1.53081568	      0.55942864	      1.00178259	     -0.29037143	     -4.67459645	    -16.09730521	     12.15409062	    -44.49647294	     -4.84213642	     13.29054224	    -74.69623146	     -4.25354565	     -7.77470883	      1.90076685	    -53.42922813	      3.61854961	     10.65175764	    -42.63553985	      0.00000000	      0.00000000	      0.00000000
      5.87000000	     59.41131150	      3.18813751	     -1.53205559	      0.55942363	      1.00178728	     -0.29036513	     -4.67756297	    -16.09275170	     12.15475321	    -44.48450793	     -4.83493859	     13.27853914	    -74.75773339	     -4.25750846	     -7.77647393	      1.89811672	    -53.43250043	      3.61496976	     10.64743576	    -42.65191019	      0.00000000	      0.00000000	      0.00000000
      5.88000000	     59.41031017	      3.18623028	     -1.53280349	      0.55942399	      1.00178167	     -0.29036571	     -4.67873578	    -16.08781654	     12.15522165	    -44.47409874	     -4.83306909	     13.28329681	    -74.78027787	     -4.25820971	     -7.77924263	      1.89630023	    -53.43952127	      3.61369913	     10.64402172	    -42.66354573	      0.00000000	      0.00000000	      0.00000000
      5.89000000	     59.40771707	      3.18388194	     -1.53318077	      0.55942779	      1.00177252	     -0.29036858	     -4.67803367	    -16.08329523	     12.15511126	    -44.46581940	     -4.83575614	     13.30198091	    -74.76628707	     -4.25590364	     -7.78266602	      1.89585820	    -53.44978576	      3.61526893	     10.64158533	    -42.67079638	      0.00000000	      0.00000000	      0.00000000
      5.90000000	     59.40460613	      3.18116810	     -1.53313127	      0.55943252	      1.00176904	     -0.29036916	     -4.67534490	    -16.07986398	     12.15433931	    -44.46023141	     -4.84147049	     13.32986529	    -74.72199707	     -4.25135250	     -7.78620566	      1.89698648	    -53.46200142	      3.61962767	     10.64038567	    -42.67463058	      0.00000000	      0.00000000	      0.00000000
      5.91000000	     59.40168918	      3.17839773	     -1.53262974	      0.55943547	      1.00177332	     -0.29036878	     -4.67079832	    -16.07763336	     12.15297528	    -44.45769374	     -4.84845876	     13.36161571	    -74.65649400	     -4.24583883	     -7.78923299	      1.89934251	    -53.47466514	      3.62608324	     10.64083852	    -42.67644765	      0.00000000	      0.00000000	      0.00000000
      5.92000000	     59.39899505	      3.17621495	     -1.53197340	      0.55943388	      1.00177358	     -0.29036758	     -4.66508098	    -16.07611702	     12.15122709	    -44.45821702	     -4.85522800	     13.39247744	    -74.58044311	     -4.24069953	     -7.79132084	      1.90221641	    -53.48655389	      3.63338158	     10.64338551	    -42.67780896	      0.00000000	      0.00000000	      0.00000000
      5.93000000	     59.39653194	      3.17532424	     -1.53161350	      0.55942908	      1.00176295	     -0.29036281	     -4.65922278	    -16.07481140	     12.14968667	    -44.46138366	     -4.86079255	     13.41900495	    -74.50474096	     -4.23658586	     -7.79268408	      1.90495501	    -53.49683010	      3.63995167	     10.64828432	    -42.68013174	      0.00000000	      0.00000000	      0.00000000
      5.94000000	     59.39471305	      3.17594663	     -1.53163813	      0.55942565	      1.00175395	     -0.29035383	     -4.65413794	    -16.07373683	     12.14941625	    -44.46636970	     -4.86465269	     13.43923523	    -74.43926286	     -4.23335998	     -7.79412035	      1.90722946	    -53.50501707	      3.64429213	     10.65539825	    -42.68440592	      0.00000000	      0.00000000	      0.00000000
      5.95000000	     59.39380403	      3.17753410	     -1.53156320	      0.55942579	      1.00175566	     -0.29034308	     -4.65048143	    -16.07323107	     12.15147627	    -44.47207672	     -4.86659481	     13.45243051	    -74.39182383	     -4.23075866	     -7.79623015	      1.90893211	    -53.51100310	      3.64538998	     10.66409568	    -42.69099949	      0.00000000	      0.00000000	      0.00000000
      5.96000000	     59.39362221	      3.17902587	     -1.53057204	      0.55942675	      1.00176267	     -0.29033422	     -4.64856834	    -16.07352500	     12.15630983	    -44.47733080	     -4.86643854	     13.45861645	    -74.36744303	     -4.22885773	     -7.79890718	      1.91000130	    -53.51484104	      3.64301025	     10.67332108	    -42.69959808	      0.00000000	      0.00000000	      0.00000000
      5.97000000	     59.39392994	      3.17968505	     -1.52820446	      0.55942495	      1.00177228	     -0.29032961	     -4.64837181	    -16.07451943	     12.16339110	    -44.48111795	     -4.86389997	     13.45820835	    -74.36795811	     -4.22781404	     -7.80170464	      1.91046077	    -53.51637481	      3.63772823	     10.68180463	    -42.70928522	      0.00000000	      0.00000000	      0.00000000
      5.98000000	     59.39449552	      3.17981094	     -1.52501184	      0.55942053	      1.00178254	     -0.29032735	     -4.64980594	    -16.07564935	     12.17123999	    -44.48283072	     -4.85869060	     13.45193124	    -74.39200820	     -4.22759591	     -7.80430015	      1.91051999	    -53.51519189	      3.63069796	     10.68831851	    -42.71873352	      0.00000000	      0.00000000	      0.00000000
      5.99000000	     59.39493648	      3.18034149	     -1.52222445	      0.55941654	      1.00178355	     -0.29032492	     -4.65277442	    -16.07622367	     12.17802967	    -44.48244245	     -4.85078600	     13.44096176	    -74.43540203	     -4.22812141	     -7.80651357	      1.91055011	    -53.51099958	      3.62327386	     10.69189977	    -42.72645960	      0.00000000	      0.00000000	      0.00000000
      6.00000000	     59.39498900	      3.18159294	     -1.52054223	      0.55941446	      1.00177647	     -0.29032192	     -4.65676616	    -16.07622033	     12.18255328	    -44.48050386	     -4.84068795	     13.42704900	    -74.49184615	     -4.22942667	     -7.80807421	      1.91092644	    -53.50402224	      3.61664360	     10.69200758	    -42.73109092	      0.00000000	      0.00000000	      0.00000000
      6.01000000	     59.39461343	      3.18284577	     -1.51962202	      0.55941333	      1.00177598	     -0.29031765	     -4.66082382	    -16.07639823	     12.18463928	    -44.47798657	     -4.82957844	     13.41247804	    -74.55391899	     -4.23161043	     -7.80852040	      1.91185317	    -53.49512467	      3.61158708	     10.68861023	    -42.73159635	      0.00000000	      0.00000000	      0.00000000
      6.02000000	     59.39380553	      3.18333729	     -1.51883078	      0.55941372	      1.00178289	     -0.29031211	     -4.66407672	    -16.07754981	     12.18477734	    -44.47606875	     -4.81928345	     13.39981879	    -74.61414479	     -4.23452006	     -7.80755361	      1.91334659	    -53.48556056	      3.60840252	     10.68219385	    -42.72744088	      0.00000000	      0.00000000	      0.00000000
      6.03000000	     59.39270922	      3.18309525	     -1.51798232	      0.55941713	      1.00178633	     -0.29030825	     -4.66602462	    -16.07999763	     12.18362157	    -44.47587630	     -4.81194642	     13.39140601	    -74.66603486	     -4.23744208	     -7.80548979	      1.91532840	    -53.47652466	      3.60697341	     10.67368187	    -42.71864587	      0.00000000	      0.00000000	      0.00000000
      6.04000000	     59.39162902	      3.18269733	     -1.51729731	      0.55942190	      1.00178633	     -0.29031090	     -4.66646893	    -16.08360422	     12.18169445	    -44.47820369	     -4.80949325	     13.38869059	    -74.70493497	     -4.23929274	     -7.80312730	      1.91760967	    -53.46887578	      3.60690243	     10.66427202	    -42.70576267	      0.00000000	      0.00000000	      0.00000000
      6.05000000	     59.39056154	      3.18248056	     -1.51689843	      0.55942556	      1.00178741	     -0.29032152	     -4.66544012	    -16.08793066	     12.17922606	    -44.48329388	     -4.81310324	     13.39173531	    -74.72853627	     -4.23933945	     -7.80108017	      1.91975286	    -53.46315001	      3.60763487	     10.65522374	    -42.68978260	      0.00000000	      0.00000000	      0.00000000
      6.06000000	     59.38905727	      3.18216681	     -1.51651486	      0.55942926	      1.00178428	     -0.29033516	     -4.66313825	    -16.09249632	     12.17614922	    -44.49076773	     -4.82286456	     13.39905753	    -74.73698914	     -4.23762022	     -7.79948164	      1.92110964	    -53.45961291	      3.60854333	     10.64764682	    -42.67200846	      0.00000000	      0.00000000	      0.00000000
